<?xml version="1.0" encoding="utf-8"?>
<!-- Generator: Adobe Illustrator 16.0.4, SVG Export Plug-In . SVG Version: 6.00 Build 0)  -->
<!DOCTYPE svg PUBLIC "-//W3C//DTD SVG 1.1 Tiny//EN" "http://www.w3.org/Graphics/SVG/1.1/DTD/svg11-tiny.dtd">
<svg version="1.1" baseProfile="tiny" id="Capa_1" xmlns="http://www.w3.org/2000/svg" xmlns:xlink="http://www.w3.org/1999/xlink"
	 x="0px" y="0px" width="210px" height="80px" viewBox="0 0 210 80" xml:space="preserve">
<g>
	<path fill="#1A171B" d="M209.817,4.432c-0.368-1.369-1.248-2.513-2.479-3.221c-0.807-0.465-1.728-0.712-2.653-0.712
		c-1.897,0-3.663,1.016-4.608,2.653l-35.268,60.931L129.539,3.145c-0.945-1.637-2.709-2.652-4.602-2.652
		c-1.894,0-3.659,1.016-4.604,2.651l-35.27,60.938L49.794,3.152C48.849,1.517,47.083,0.5,45.19,0.5
		c-1.893,0-3.656,1.017-4.604,2.653L0.714,72.043c-0.709,1.229-0.898,2.658-0.53,4.024c0.368,1.369,1.246,2.512,2.477,3.222
		C3.47,79.753,4.386,80,5.313,80c1.896,0,3.661-1.017,4.609-2.652L45.19,16.409l35.268,60.929c0.946,1.638,2.711,2.653,4.604,2.653
		c1.893,0,3.659-1.016,4.604-2.651l35.271-60.938l35.261,60.927c0.465,0.813,1.141,1.491,1.959,1.962
		c0.058,0.034,0.119,0.062,0.175,0.09l0.061,0.027c0.054,0.029,0.108,0.054,0.155,0.076c0.593,0.28,1.222,0.444,1.866,0.493
		c0,0,0.05,0.002,0.056,0.002l0.081,0.007c0.086,0.007,0.169,0.013,0.254,0.013c0.346,0,0.705-0.039,1.107-0.125
		c0.026-0.004,0.056-0.009,0.085-0.018c0.142-0.031,0.281-0.072,0.416-0.114l0.142-0.048c0.142-0.049,0.28-0.102,0.397-0.153
		c0.022-0.009,0.042-0.021,0.064-0.029c0.447-0.204,0.865-0.471,1.24-0.791l0.022-0.022c0.036-0.027,0.069-0.054,0.104-0.088
		c0.097-0.085,0.188-0.177,0.273-0.266c0.05-0.05,0.095-0.104,0.14-0.157l0.092-0.104c0.057-0.065,0.11-0.13,0.16-0.194
		c0.107-0.14,0.208-0.291,0.301-0.448c0.024-0.031,0.047-0.063,0.062-0.095l39.874-68.892C209.995,7.229,210.183,5.8,209.817,4.432z
		"/>
	<path fill="#1A171B" d="M164.789,0c7.373,0,13.271,5.92,13.271,13.275c0,7.353-5.898,13.2-13.271,13.2
		c-7.371,0-13.23-5.847-13.23-13.2C151.558,5.92,157.417,0,164.789,0z"/>
</g>
<g>
</g>
<g>
</g>
<g>
</g>
<g>
</g>
<g>
</g>
<g>
</g>
<g>
</g>
<g>
</g>
<g>
</g>
<g>
</g>
<g>
</g>
<g>
</g>
<g>
</g>
<g>
</g>
<g>
</g>
</svg>
