<?xml version="1.0" encoding="utf-8"?>
<!-- Generator: Adobe Illustrator 16.0.4, SVG Export Plug-In . SVG Version: 6.00 Build 0)  -->
<!DOCTYPE svg PUBLIC "-//W3C//DTD SVG 1.1 Tiny//EN" "http://www.w3.org/Graphics/SVG/1.1/DTD/svg11-tiny.dtd">
<svg version="1.1" baseProfile="tiny" id="Capa_1" xmlns="http://www.w3.org/2000/svg" xmlns:xlink="http://www.w3.org/1999/xlink"
	 x="0px" y="0px" width="140px" height="53.333px" viewBox="0 0 140 53.333" xml:space="preserve">
<g>
	<path fill="#1A171B" d="M139.878,2.955c-0.246-0.913-0.832-1.676-1.652-2.147c-0.538-0.31-1.152-0.475-1.77-0.475
		c-1.265,0-2.441,0.678-3.072,1.769l-23.512,40.621L86.359,2.097c-0.63-1.091-1.806-1.769-3.067-1.769
		c-1.263,0-2.439,0.677-3.07,1.768L56.708,42.721L33.196,2.102c-0.631-1.09-1.808-1.769-3.07-1.769s-2.438,0.678-3.069,1.769
		L0.476,48.029c-0.473,0.819-0.599,1.772-0.353,2.684c0.246,0.912,0.831,1.674,1.651,2.147c0.539,0.31,1.15,0.474,1.768,0.474
		c1.264,0,2.441-0.678,3.073-1.769l23.512-40.625l23.512,40.62c0.63,1.092,1.807,1.769,3.069,1.769s2.439-0.677,3.07-1.768
		l23.514-40.625l23.507,40.618c0.31,0.542,0.761,0.994,1.306,1.308c0.039,0.023,0.08,0.041,0.117,0.061l0.04,0.018
		c0.036,0.02,0.072,0.036,0.104,0.051c0.396,0.188,0.814,0.297,1.244,0.329c0,0,0.033,0.001,0.037,0.001l0.055,0.005
		c0.057,0.005,0.112,0.009,0.169,0.009c0.23,0,0.47-0.026,0.738-0.084c0.018-0.002,0.037-0.006,0.057-0.012
		c0.095-0.021,0.188-0.048,0.277-0.076l0.095-0.031c0.094-0.033,0.187-0.068,0.265-0.103c0.015-0.006,0.028-0.014,0.043-0.02
		c0.298-0.136,0.577-0.313,0.827-0.527l0.015-0.015c0.024-0.019,0.046-0.036,0.069-0.059c0.064-0.057,0.125-0.118,0.182-0.178
		c0.033-0.033,0.063-0.068,0.094-0.104l0.061-0.069c0.038-0.043,0.074-0.086,0.107-0.129c0.071-0.094,0.139-0.194,0.2-0.299
		c0.017-0.021,0.031-0.043,0.042-0.063l26.582-45.928C139.997,4.819,140.123,3.867,139.878,2.955z"/>
	<path fill="#1A171B" d="M109.859,0c4.916,0,8.848,3.947,8.848,8.85c0,4.902-3.932,8.8-8.848,8.8c-4.914,0-8.82-3.898-8.82-8.8
		C101.039,3.947,104.945,0,109.859,0z"/>
</g>
<g>
</g>
<g>
</g>
<g>
</g>
<g>
</g>
<g>
</g>
<g>
</g>
<g>
</g>
<g>
</g>
<g>
</g>
<g>
</g>
<g>
</g>
<g>
</g>
<g>
</g>
<g>
</g>
<g>
</g>
</svg>
